<svg xmlns="http://www.w3.org/2000/svg" width="240" height="336" viewBox="0 0 240 336"><defs><pattern id="p" width="24" height="12" patternUnits="userSpaceOnUse"><path d="M0 12a12 12 0 0 1 24 0M4 12a8 8 0 0 1 16 0M8 12a4 4 0 0 1 8 0" stroke="#c9a24a" stroke-opacity="1" fill="none" stroke-width="1"/></pattern></defs><rect x=".5" y=".5" width="239" height="335" rx="12" fill="#fff" stroke="#0003"/><rect x="11" y="11" width="218" height="314" rx="6" fill="#15130f"/><rect x="11" y="11" width="218" height="314" rx="6" fill="url(#p)"/><rect x="19" y="19" width="202" height="298" rx="3" fill="none" stroke="#d4af37" stroke-opacity=".75" stroke-width="1.4"/><circle cx="120" cy="168" r="34" fill="#15130f" stroke="#d4af37" stroke-width="2"/><path d="M0-15l11 15-11 15-11-15z" transform="translate(120,168) scale(1.35)" fill="#d4af37"/></svg>