<svg xmlns="http://www.w3.org/2000/svg" width="240" height="336" viewBox="0 0 240 336"><defs><pattern id="p" width="14" height="14" patternUnits="userSpaceOnUse" patternTransform="rotate(45)"><path d="M0 0H14M0 0V14" stroke="#fff" stroke-opacity="0.22" fill="none" stroke-width="1"/></pattern></defs><rect x=".5" y=".5" width="239" height="335" rx="12" fill="#fff" stroke="#0003"/><rect x="11" y="11" width="218" height="314" rx="6" fill="#141416"/><rect x="11" y="11" width="218" height="314" rx="6" fill="url(#p)"/><rect x="19" y="19" width="202" height="298" rx="3" fill="none" stroke="#fff" stroke-opacity=".75" stroke-width="1.4"/><circle cx="120" cy="168" r="34" fill="#141416" stroke="#fff" stroke-width="2"/><path d="M0-14c-3 6-14 10-14 18 0 5 4 8 8 8 2 0 4-1 5-3-1 5-3 8-6 10h14c-3-2-5-5-6-10 1 2 3 3 5 3 4 0 8-3 8-8 0-8-11-12-14-18z" transform="translate(120,168) scale(1.35)" fill="#fff"/></svg>